<?xml version="1.0" encoding="utf-8"?>
<svg viewBox="0 0 500 500" xmlns="http://www.w3.org/2000/svg">
  <ellipse style="fill: rgb(48, 63, 159); fill-rule: nonzero;" cx="246.041" cy="251.132" rx="220.588" ry="220.588"/>
  <path d="M 49.465118408203125 255.75643920898438 L 83.74734497070312 268.7720642089844 L 83.74734497070312 282.8916931152344 L 35.113067626953125 261.2183532714844 L 35.113067626953125 250.00399780273438 L 83.74734497070312 228.38876342773438 L 83.74734497070312 242.50839233398438 Z M 165.09158325195312 264.8789978027344 Q 163.81326293945312 278.4175720214844 155.09744262695312 286.0003356933594 Q 146.38162231445312 293.5830993652344 131.91336059570312 293.5830993652344 Q 121.80300903320312 293.5830993652344 114.10403442382812 288.7893981933594 Q 106.40505981445312 283.9956970214844 102.22146606445312 275.1636657714844 Q 98.03787231445312 266.3316345214844 97.86355590820312 254.65243530273438 L 97.86355590820312 246.75009155273438 Q 97.86355590820312 234.78036499023438 102.10525512695312 225.65780639648438 Q 106.34695434570312 216.53524780273438 114.27835083007812 211.59628295898438 Q 122.20974731445312 206.65731811523438 132.61062622070312 206.65731811523438 Q 146.61404418945312 206.65731811523438 155.15554809570312 214.26913452148438 Q 163.69705200195312 221.88095092773438 165.09158325195312 235.76815795898438 L 150.44900512695312 235.76815795898438 Q 149.40310668945312 226.64559936523438 145.13235473632812 222.60726928710938 Q 140.86160278320312 218.56893920898438 132.61062622070312 218.56893920898438 Q 123.02322387695312 218.56893920898438 117.88088989257812 225.57064819335938 Q 112.73855590820312 232.57235717773438 112.62234497070312 246.11093139648438 L 112.62234497070312 253.60653686523438 Q 112.62234497070312 267.3194274902344 117.53225708007812 274.5245056152344 Q 122.44216918945312 281.7295837402344 131.91336059570312 281.7295837402344 Q 140.57107543945312 281.7295837402344 144.92898559570312 277.8365173339844 Q 149.28689575195312 273.9434509277344 150.44900512695312 264.8789978027344 Z M 242.77908325195312 264.8789978027344 Q 241.50076293945312 278.4175720214844 232.78494262695312 286.0003356933594 Q 224.06912231445312 293.5830993652344 209.60086059570312 293.5830993652344 Q 199.49050903320312 293.5830993652344 191.79153442382812 288.7893981933594 Q 184.09255981445312 283.9956970214844 179.90896606445312 275.1636657714844 Q 175.72537231445312 266.3316345214844 175.55105590820312 254.65243530273438 L 175.55105590820312 246.75009155273438 Q 175.55105590820312 234.78036499023438 179.79275512695312 225.65780639648438 Q 184.03445434570312 216.53524780273438 191.96585083007812 211.59628295898438 Q 199.89724731445312 206.65731811523438 210.29812622070312 206.65731811523438 Q 224.30154418945312 206.65731811523438 232.84304809570312 214.26913452148438 Q 241.38455200195312 221.88095092773438 242.77908325195312 235.76815795898438 L 228.13650512695312 235.76815795898438 Q 227.09060668945312 226.64559936523438 222.81985473632812 222.60726928710938 Q 218.54910278320312 218.56893920898438 210.29812622070312 218.56893920898438 Q 200.71072387695312 218.56893920898438 195.56838989257812 225.57064819335938 Q 190.42605590820312 232.57235717773438 190.30984497070312 246.11093139648438 L 190.30984497070312 253.60653686523438 Q 190.30984497070312 267.3194274902344 195.21975708007812 274.5245056152344 Q 200.12966918945312 281.7295837402344 209.60086059570312 281.7295837402344 Q 218.25857543945312 281.7295837402344 222.61648559570312 277.8365173339844 Q 226.97439575195312 273.9434509277344 228.13650512695312 264.8789978027344 Z M 303.2673645019531 272.7232360839844 L 270.4958801269531 272.7232360839844 L 263.6394348144531 292.4209899902344 L 248.35769653320312 292.4209899902344 L 280.3157043457031 207.81942749023438 L 293.5056457519531 207.81942749023438 L 325.5217590332031 292.4209899902344 L 310.1819152832031 292.4209899902344 Z M 274.6213684082031 260.8697204589844 L 299.1418762207031 260.8697204589844 L 286.8816223144531 225.77401733398438 Z M 367.3542785644531 299.6841735839844 L 356.2561340332031 299.6841735839844 L 389.5505676269531 207.81942749023438 L 400.6487121582031 207.81942749023438 Z M 446.5491027832031 255.46591186523438 L 410.6399230957031 242.27597045898438 L 410.6399230957031 228.38876342773438 L 460.8430480957031 250.00399780273438 L 460.8430480957031 261.2183532714844 L 410.6399230957031 282.8335876464844 L 410.6399230957031 268.9463806152344 Z" transform="matrix(1, 0, 0, 1, 0, 0)" style="fill: rgb(255, 255, 255); text-transform: uppercase; white-space: pre;"/>
</svg>